<svg xmlns="http://www.w3.org/2000/svg" fill-rule="evenodd" stroke-linejoin="round" stroke-miterlimit="2" clip-rule="evenodd" viewBox="0 0 33 32" id="Close"><g transform="translate(.813)" fill="#000000" class="color000000 svgShape"><rect width="32" height="32" fill="none"></rect><path fill="#f6225a" d="M161.011,111.47C161.011,100.888 152.42,92.296 141.837,92.296L103.49,92.296C92.908,92.296 84.316,100.888 84.316,111.47L84.316,149.818C84.316,160.4 92.908,168.991 103.49,168.991L141.837,168.991C152.42,168.991 161.011,160.4 161.011,149.818L161.011,111.47Z" transform="translate(-31.981 -35.103) scale(.39116)" class="colorec453d svgShape"></path><path fill="#ffffff" d="M16,4.203C16,3.538 15.233,2.998 14.289,2.998C13.344,2.998 12.578,3.538 12.578,4.203L12.578,25.891C12.578,26.556 13.344,27.096 14.289,27.096C15.233,27.096 16,26.556 16,25.891L16,4.203Z" transform="rotate(45 7.936 23.478) scale(.5844 .82995)" class="colorffffff svgShape"></path><path fill="#ffffff" d="M16,4.203C16,3.538 15.233,2.998 14.289,2.998C13.344,2.998 12.578,3.538 12.578,4.203L12.578,25.891C12.578,26.556 13.344,27.096 14.289,27.096C15.233,27.096 16,26.556 16,25.891L16,4.203Z" transform="rotate(-45 46.563 -7.478) scale(.5844 -.82995)" class="colorffffff svgShape"></path></g></svg>