<svg xmlns="http://www.w3.org/2000/svg" enable-background="new 0 0 66 66" viewBox="0 0 66 66" id="uiuxdesign"><path d="M45.9,1H22c-2.8,0-5,2.2-5,5v54c0,2.8,2.2,5,5,5h23.8c2.8,0,5-2.2,5-5V6C50.9,3.2,48.6,1,45.9,1z M48.9,60c0,1.6-1.3,3-3,3
		H22c-1.6,0-3-1.4-3-3V6c0-1.7,1.4-3,3-3h23.8c1.7,0,3,1.3,3,3V60z" fill="#7a89ab" class="color000000 svgShape"></path><path d="M31.6 7.1h4.8c.6 0 1-.4 1-1 0-.6-.4-1-1-1h-4.8c-.6 0-1 .4-1 1C30.6 6.7 31 7.1 31.6 7.1zM40.1 58.9H27.8c-.6 0-1 .4-1 1 0 .6.4 1 1 1h12.3c.6 0 1-.4 1-1C41.1 59.3 40.6 58.9 40.1 58.9zM41.8 11.5H26.1c-2.5 0-4.5 2-4.5 4.5v8.6c0 2.5 2 4.6 4.5 4.6h15.7c2.5 0 4.6-2 4.6-4.6v-8.6C46.3 13.6 44.3 11.5 41.8 11.5zM44.3 24.7c0 1.4-1.1 2.6-2.6 2.6h-1.2v-.4c0-1.9-1.6-3.5-3.5-3.5h-6.3c-1.9 0-3.5 1.6-3.5 3.5v.4h-1.2c-1.4 0-2.5-1.1-2.5-2.6v-8.6c0-1.4 1.2-2.5 2.5-2.5h15.7c1.4 0 2.6 1.1 2.6 2.5V24.7zM22.2 43.7c.1.1.3.1.4.1h8.8c.1 0 .3 0 .4-.1.2-.1.4-.3.5-.5.1-.1.1-.3.1-.4V34c0-.1 0-.3-.1-.4-.1-.2-.3-.4-.5-.5C31.6 33 31.4 33 31.3 33h-8.8c-.1 0-.3 0-.4.1-.2.1-.4.3-.5.5-.1.1-.1.3-.1.4v8.8c0 .1 0 .3.1.4C21.7 43.4 21.9 43.6 22.2 43.7zM28.3 38.4l2-2v3.9L28.3 38.4zM28.9 41.7H25l2-2L28.9 41.7zM26.9 37l-2-2h3.9L26.9 37zM25.5 38.4l-2 2v-3.9L25.5 38.4zM45.7 33.1C45.6 33 45.5 33 45.3 33h-8.9c-.1 0-.3 0-.4.1-.2.1-.4.3-.5.5-.1.1-.1.3-.1.4v8.9c0 .1 0 .3.1.4.1.2.3.4.5.5.1.1.3.1.4.1h8.9c.1 0 .3 0 .4-.1.2-.1.4-.3.5-.5.1-.1.1-.3.1-.4V34c0-.1 0-.3-.1-.4C46.2 33.4 46 33.2 45.7 33.1zM39.5 38.5l-2.1 2.1v-4.1L39.5 38.5zM38.8 35h4.1L40.9 37 38.8 35zM40.9 39.9l2.1 2.1h-4.1L40.9 39.9zM42.3 38.5l2.1-2.1v4.1L42.3 38.5zM22.5 49.4h8.8c.6 0 1-.4 1-1 0-.6-.4-1-1-1h-8.8c-.6 0-1 .4-1 1C21.5 48.9 22 49.4 22.5 49.4zM28.4 53.5c0-.6-.4-1-1-1h-4.9c-.6 0-1 .4-1 1 0 .6.4 1 1 1h4.9C28 54.5 28.4 54 28.4 53.5zM45.3 47.4h-8.8c-.6 0-1 .4-1 1 0 .6.4 1 1 1h8.8c.6 0 1-.4 1-1C46.3 47.8 45.9 47.4 45.3 47.4zM45.3 52.5h-4.9c-.6 0-1 .4-1 1 0 .6.4 1 1 1h4.9c.6 0 1-.4 1-1C46.3 52.9 45.9 52.5 45.3 52.5zM12.4 22.8c1.8-1.4 2.9-3.6 2.9-5.9 0-3.8-6-14.2-6.6-15.4C8.4 1.1 8 .9 7.6 1 7.2 1.1 6.8 1.4 6.8 1.8c0 0-.9 5.3-4.7 11.8C.6 16.3.9 19.6 3 22c.3.4.7.7 1 1l-2 35.5c-.1 1.7.5 3.3 1.7 4.6C4.9 64.3 6.5 65 8.2 65c1.7 0 3.3-.7 4.5-1.9 1.2-1.2 1.8-2.9 1.7-4.6L12.4 22.8zM3.8 14.6C6.2 10.6 7.5 7 8.1 4.7c2.1 3.9 5.1 10 5.1 12.2 0 2.3-1.3 4.3-3.4 5.1-2.3.9-4.2-.1-5.3-1.4C3.3 19.4 2.5 17 3.8 14.6zM63.9 1h-10c-.6 0-1 .4-1 1v62c0 .6.4 1 1 1h10c.6 0 1-.4 1-1V2C64.9 1.4 64.4 1 63.9 1zM62.9 63h-8v-3.9h3.5c.6 0 1-.4 1-1s-.4-1-1-1h-3.5v-4.3H57c.6 0 1-.4 1-1s-.4-1-1-1h-2.2v-4.3h3.5c.6 0 1-.4 1-1s-.4-1-1-1h-3.5v-4.3H57c.6 0 1-.4 1-1s-.4-1-1-1h-2.2V34h3.5c.6 0 1-.4 1-1s-.4-1-1-1h-3.5v-4.3H57c.6 0 1-.4 1-1s-.4-1-1-1h-2.2v-4.3h3.5c.6 0 1-.4 1-1s-.4-1-1-1h-3.5v-4.3H57c.6 0 1-.4 1-1s-.4-1-1-1h-2.2V8.9h3.5c.6 0 1-.4 1-1s-.4-1-1-1h-3.5V3h8V63z" fill="#7a89ab" class="color000000 svgShape"></path><path d="M37.6,18.4c0,2.1-1.7,3.9-3.8,3.9c-2.1,0-3.9-1.7-3.9-3.9c0-2.1,1.7-3.8,3.9-3.8C35.9,14.5,37.6,16.3,37.6,18.4z" fill="#7a89ab" class="color000000 svgShape"></path></svg>