<svg xmlns="http://www.w3.org/2000/svg" viewBox="0 0 128 128" id="WebDesign"><g data-name="Outline" fill="#7a89ab" class="color000000 svgShape"><path d="M114.5,0H13.5A13.515,13.515,0,0,0,0,13.5v101A13.515,13.515,0,0,0,13.5,128h101A13.515,13.515,0,0,0,128,114.5V13.5A13.515,13.515,0,0,0,114.5,0ZM125,114.5A10.512,10.512,0,0,1,114.5,125H13.5A10.512,10.512,0,0,1,3,114.5V30H125ZM125,27H3V13.5A10.512,10.512,0,0,1,13.5,3h101A10.512,10.512,0,0,1,125,13.5Z" fill="#7a89ab" class="color000000 svgShape"></path><path d="M15.5 11A4.5 4.5 0 1020 15.5 4.505 4.505 0 0015.5 11zm0 6A1.5 1.5 0 1117 15.5 1.5 1.5 0 0115.5 17zM47.5 11A4.5 4.5 0 1052 15.5 4.505 4.505 0 0047.5 11zm0 6A1.5 1.5 0 1149 15.5 1.5 1.5 0 0147.5 17zM31.5 11A4.5 4.5 0 1036 15.5 4.505 4.505 0 0031.5 11zm0 6A1.5 1.5 0 1133 15.5 1.5 1.5 0 0131.5 17zM111.5 11h-16a4.5 4.5 0 000 9h16a4.5 4.5 0 000-9zm0 6h-16a1.5 1.5 0 010-3h16a1.5 1.5 0 010 3zM12.5 62h103a4.505 4.505 0 004.5-4.5v-17a4.505 4.505 0 00-4.5-4.5H12.5A4.505 4.505 0 008 40.5v17A4.505 4.505 0 0012.5 62zM11 40.5A1.5 1.5 0 0112.5 39h103a1.5 1.5 0 011.5 1.5v17a1.5 1.5 0 01-1.5 1.5H12.5A1.5 1.5 0 0111 57.5zM115.5 70h-32A4.505 4.505 0 0079 74.5v7A4.505 4.505 0 0083.5 86h32a4.505 4.505 0 004.5-4.5v-7A4.505 4.505 0 00115.5 70zM117 81.5a1.5 1.5 0 01-1.5 1.5h-32A1.5 1.5 0 0182 81.5v-7A1.5 1.5 0 0183.5 73h32a1.5 1.5 0 011.5 1.5zM67.5 70h-54A4.505 4.505 0 009 74.5v40a4.505 4.505 0 004.5 4.5h54a4.505 4.505 0 004.5-4.5v-40A4.505 4.505 0 0067.5 70zM69 114.5a1.5 1.5 0 01-1.5 1.5h-54a1.5 1.5 0 01-1.5-1.5V94.784l7.458-7.05a4.486 4.486 0 016.049-.121l15.327 13.365a7.526 7.526 0 009.857 0l7.455-6.5a4.485 4.485 0 016.242.313L69 99.709zm0-19.176l-2.425-2.585a7.474 7.474 0 00-10.4-.522l-7.456 6.5a4.517 4.517 0 01-5.914 0L27.478 85.352a7.472 7.472 0 00-10.081.2l-5.4 5.1V74.5A1.5 1.5 0 0113.5 73h54A1.5 1.5 0 0169 74.5zM118.5 104h-37a1.5 1.5 0 000 3h37a1.5 1.5 0 000-3zM118.5 116h-37a1.5 1.5 0 000 3h37a1.5 1.5 0 000-3zM118.5 92h-37a1.5 1.5 0 000 3h37a1.5 1.5 0 000-3z" fill="#7a89ab" class="color000000 svgShape"></path><path d="M37.5 56A1.5 1.5 0 0039 54.5v-11a1.5 1.5 0 00-3 0v11A1.5 1.5 0 0037.5 56zM46 76a6 6 0 106 6A6.006 6.006 0 0046 76zm0 9a3 3 0 113-3A3 3 0 0146 85zM23 54a5.994 5.994 0 001.756-.263l.972 1.557a1.5 1.5 0 102.544-1.588l-.962-1.542A5.993 5.993 0 1023 54zm0-9a3 3 0 11-3 3A3 3 0 0123 45z" fill="#7a89ab" class="color000000 svgShape"></path></g></svg>